<?xml version="1.0" standalone="no"?>
<!DOCTYPE svg PUBLIC "-//W3C//DTD SVG 20010904//EN"
 "http://www.w3.org/TR/2001/REC-SVG-20010904/DTD/svg10.dtd">
<svg version="1.0" xmlns="http://www.w3.org/2000/svg"
 width="1483.000000pt" height="958.000000pt" viewBox="0 0 1483.000000 958.000000"
 preserveAspectRatio="xMidYMid meet">

<g transform="translate(0.000000,958.000000) scale(0.100000,-0.100000)"
fill="#000000" stroke="none">
<path d="M6771 6298 c-57 -28 -103 -74 -131 -133 -19 -39 -22 -58 -18 -124 4
-65 11 -90 43 -152 20 -41 58 -103 83 -139 47 -67 258 -285 324 -334 l37 -28
38 29 c70 52 260 247 319 328 176 239 178 429 6 540 -41 26 -56 30 -117 30
-63 0 -75 -3 -116 -32 -48 -34 -90 -82 -110 -127 -16 -34 -27 -33 -44 7 -18
43 -86 112 -135 137 -52 27 -123 26 -179 -2z"/>
<path d="M8835 5985 c-103 -16 -253 -62 -351 -105 -161 -73 -356 -234 -474
-391 -197 -264 -291 -619 -277 -1043 6 -193 26 -303 83 -468 75 -215 174 -378
319 -523 193 -194 436 -316 720 -360 132 -21 386 -16 505 10 555 121 914 497
1030 1080 43 217 38 543 -12 760 -66 286 -178 498 -362 681 -178 179 -373 284
-636 346 -114 26 -415 34 -545 13z m365 -325 c318 -39 580 -230 716 -524 44
-95 81 -227 100 -351 22 -141 14 -473 -14 -600 -49 -220 -132 -376 -271 -516
-188 -187 -375 -262 -656 -262 -272 0 -458 72 -644 248 -122 116 -202 246
-255 415 -47 147 -58 259 -53 500 6 225 22 338 68 479 135 415 551 666 1009
611z"/>
<path d="M4140 4540 l0 -1410 190 0 190 0 0 665 0 665 730 0 730 0 0 -665 0
-665 185 0 185 0 0 1410 0 1410 -185 0 -185 0 0 -580 0 -580 -730 0 -730 0 0
580 0 580 -190 0 -190 0 0 -1410z"/>
<path d="M10900 4540 l0 -1410 190 0 190 0 0 665 0 665 730 0 730 0 0 -665 0
-665 185 0 185 0 0 1410 0 1410 -185 0 -185 0 0 -580 0 -580 -730 0 -730 0 0
580 0 580 -190 0 -190 0 0 -1410z"/>
<path d="M6920 4155 l0 -1025 175 0 175 0 0 1025 0 1025 -175 0 -175 0 0
-1025z"/>
</g>
</svg>
